<?xml version="1.0" encoding="UTF-8" standalone="no"?>
<!-- Created with Inkscape (http://www.inkscape.org/) -->

<svg
   width="248.96323mm"
   height="106.32339mm"
   viewBox="0 0 248.96323 106.32339"
   version="1.1"
   id="svg5"
   inkscape:version="1.1.2 (0a00cf5339, 2022-02-04)"
   sodipodi:docname="connections.svg"
   xmlns:inkscape="http://www.inkscape.org/namespaces/inkscape"
   xmlns:sodipodi="http://sodipodi.sourceforge.net/DTD/sodipodi-0.dtd"
   xmlns="http://www.w3.org/2000/svg"
   xmlns:svg="http://www.w3.org/2000/svg">
  <sodipodi:namedview
     id="namedview7"
     pagecolor="#ffffff"
     bordercolor="#666666"
     borderopacity="1.0"
     inkscape:pageshadow="2"
     inkscape:pageopacity="0.0"
     inkscape:pagecheckerboard="0"
     inkscape:document-units="mm"
     showgrid="false"
     inkscape:zoom="0.77593294"
     inkscape:cx="347.32383"
     inkscape:cy="387.27574"
     inkscape:window-width="1918"
     inkscape:window-height="1078"
     inkscape:window-x="0"
     inkscape:window-y="0"
     inkscape:window-maximized="1"
     inkscape:current-layer="layer1" />
  <defs
     id="defs2" />
  <g
     inkscape:groupmode="layer"
     id="layer2"
     inkscape:label="connections" />
  <g
     inkscape:label="Layer 1"
     inkscape:groupmode="layer"
     id="layer1"
     transform="translate(25.58494,3.1540244)">
    <text
       xml:space="preserve"
       style="font-style:normal;font-weight:normal;font-size:10.5833px;line-height:1.25;font-family:sans-serif;fill:#000000;fill-opacity:1;stroke:none;stroke-width:0.264583"
       x="84.234039"
       y="111.77476"
       id="text11199"><tspan
         sodipodi:role="line"
         id="tspan11197"
         style="stroke-width:0.264583"
         x="84.234039"
         y="111.77476" /></text>
    <g
       id="g15416"
       transform="matrix(0.94673225,0,0,0.94673225,5.2680035,2.6637962)">
      <path
         style="fill:#2b0000;fill-opacity:1;stroke:#480000;stroke-width:0;stroke-miterlimit:4;stroke-dasharray:none;stroke-opacity:1"
         id="path15236"
         d="m 34.822587,22.416235 c 0.439936,0.421994 0.849551,0.878063 1.319805,1.265982 1.78226,1.470199 3.793078,2.75831 5.766303,3.936317 3.487759,2.082178 6.238536,3.560767 9.995292,5.225647 1.943785,0.861428 3.941132,1.596528 5.911699,2.394792 2.101416,0.689266 4.175069,1.469763 6.304243,2.067792 1.934797,0.543436 3.902942,0.967135 5.875197,1.353101 4.062486,0.795017 8.265043,1.350647 12.409865,0.947954 0.773703,-0.07517 1.53419,-0.251656 2.301285,-0.377486 0.254328,-0.174863 0.60502,-0.259435 0.762985,-0.524589 0.617781,-1.036987 -0.347663,-1.579182 -1.133071,-1.88332 -0.137633,-0.0533 -0.279733,-0.16845 -0.422706,-0.131805 -0.07658,0.01963 0.06835,0.142578 0.102526,0.213868 -0.110212,0.247673 -0.374274,0.475467 -0.330636,0.743018 0.02614,0.160351 0.313682,0.085 0.471786,0.12241 1.026126,0.242782 1.98051,0.322895 3.033636,0.299334 1.000363,-0.17407 1.769528,-0.749893 2.261671,-1.620674 0.127336,-0.407016 0.279591,-0.518252 -0.03619,-0.835334 -0.01312,-0.04845 -0.69833,0.13698 -0.685218,0.18543 v 0 c -0.246816,-0.178961 -0.160448,-0.06403 -0.286564,0.147638 -0.371367,0.530458 -0.920248,0.905483 -1.583378,0.912915 -0.757524,-0.0041 -1.501352,-0.167571 -2.253867,-0.235603 -0.202837,-0.01834 -0.424153,-0.120475 -0.60988,-0.0369 -0.351705,0.158268 -0.604232,0.47947 -0.906346,0.719203 0.06101,0.121902 0.0873,0.268653 0.18302,0.365707 0.08375,0.08492 0.831382,0.393409 0.875411,0.398862 0.05611,0.007 0.891358,-0.192836 0.64503,-0.497945 -0.132019,-0.163523 -0.419793,-0.02111 -0.629692,-0.03167 -4.207465,-0.520816 -8.390173,-1.222155 -12.50945,-2.241658 -1.867802,-0.462272 -3.717104,-0.997268 -5.565388,-1.53226 -2.063531,-0.597297 -4.112771,-1.242899 -6.169157,-1.86435 -1.953165,-0.72762 -3.918059,-1.424498 -5.859492,-2.18286 -6.203709,-2.423289 -12.341495,-5.06518 -18.250664,-8.142395 -0.05932,-0.06987 -1.047377,0.769013 -0.988058,0.838879 z"
         transform="translate(-25.58494,-3.1540244)" />
      <path
         style="fill:#2b0000;fill-opacity:1;stroke:#480000;stroke-width:0;stroke-miterlimit:4;stroke-dasharray:none;stroke-opacity:1"
         id="path15238"
         d="m 25.142112,30.248473 c -2.151168,7.430895 -3.80907,14.991755 -5.684698,22.494521 -1.008805,4.362479 -2.141001,8.716594 -2.746676,13.161046 -0.101236,0.742874 -0.172662,1.491324 -0.195327,2.240722 -0.0098,0.325522 -0.222693,0.916236 0.09816,0.972069 0.552474,0.09614 1.023533,-0.458544 1.535299,-0.687816 0.456374,-1.238883 0.796561,-2.520461 1.014958,-3.822608 0.01882,-0.112217 0.176143,-1.173882 0.09544,-1.272299 -0.109392,-0.133403 -0.32753,-0.108519 -0.491295,-0.16278 2.57e-4,-0.0047 -0.06675,-0.0084 -0.067,-0.0036 v 0 c -0.166761,-0.0079 -0.353095,-0.102492 -0.500281,-0.02371 -0.0964,0.0516 -0.44293,1.122701 -0.459197,1.174948 -0.38799,1.246217 -0.689452,2.520046 -0.896259,3.808807 0.337338,0.400071 0.503738,1.075682 1.012015,1.200211 0.310418,0.07605 0.339396,-0.544544 0.465473,-0.838224 0.295384,-0.688051 0.554644,-1.39175 0.796141,-2.100516 1.452883,-4.264038 2.555447,-8.639763 3.602794,-13.017124 1.603341,-7.579982 3.422184,-15.252068 3.406608,-23.040861 0.0059,-0.06973 -0.980298,-0.15249 -0.98615,-0.08276 z"
         transform="translate(-25.58494,-3.1540244)" />
      <path
         style="fill:#2b0000;fill-opacity:1;stroke:#480000;stroke-width:0;stroke-miterlimit:4;stroke-dasharray:none;stroke-opacity:1"
         id="path15240"
         d="m 31.950316,73.238862 c 4.433273,1.420577 8.96603,2.510292 13.486444,3.610716 2.389164,0.581604 4.770369,1.198017 7.170907,1.730726 2.817593,0.625258 5.654143,1.161786 8.481213,1.742679 8.63881,1.683969 17.351224,2.932951 26.068779,4.121631 4.273783,0.582753 8.010324,1.120047 12.263898,1.515631 1.253193,0.116549 2.511353,0.171612 3.767023,0.257416 0.75085,-0.01786 1.50487,0.01773 2.25253,-0.05356 0.70615,-0.06733 2.00517,-0.05229 1.55256,-1.298964 -0.26657,-0.734224 -2.09628,-1.26728 -2.75257,-1.483154 -0.60363,-0.109008 -1.7033,-0.484341 -1.71586,0.694783 -0.003,0.317066 1.06061,0.926295 1.22472,0.981673 0.29394,0.09919 0.61438,0.08663 0.92157,0.12995 0.0205,0.01738 0.26627,-0.272838 0.24575,-0.290216 v 0 c -0.15319,-0.230937 -0.25931,-0.501253 -0.45957,-0.692809 -0.56335,-0.538843 -1.20927,-0.642461 -1.727,0.02471 -0.18437,0.237577 1.80039,-0.226653 0.8547,0.288787 0.46206,0.158171 2.02277,0.857578 2.47808,0.647486 0.1917,-0.08845 0.38063,-0.288764 0.38916,-0.499718 0.0326,-0.80649 -4.75239,0.871106 -2.27495,-0.829485 -3.53374,-1.002866 -4.637514,-1.353942 -8.549741,-2.259603 C 84.852191,79.083005 73.928625,77.279912 62.977537,75.759378 48.126533,73.763229 60.3628,75.366292 46.792295,73.691641 41.963887,73.095799 37.10886,72.279327 32.229157,72.342729 c -0.06336,-0.01971 -0.342209,0.876421 -0.278841,0.896141 z"
         transform="translate(-25.58494,-3.1540244)" />
      <path
         style="fill:#2b0000;fill-opacity:1;stroke:#480000;stroke-width:0;stroke-miterlimit:4;stroke-dasharray:none;stroke-opacity:1"
         id="path15242"
         d="m 106.78965,85.313815 c 0.11288,-0.458623 0.24835,-0.912272 0.33865,-1.37587 0.36113,-1.854123 0.67617,-4.343323 0.88132,-6.135738 0.52961,-4.627054 0.75914,-6.874838 0.88808,-11.695808 0.0627,-2.344277 0.0159,-4.690205 0.0239,-7.035308 -0.16636,-6.537428 -0.50788,-13.113281 -1.81439,-19.539193 -0.1911,-0.939898 -0.8907,-4.229587 -1.82877,-5.379429 -0.21269,-0.260707 -0.60658,-0.291354 -0.90986,-0.437031 -0.40605,0.545576 -0.97537,1.00144 -1.21814,1.636729 -0.22139,0.579323 -0.0834,3.128772 -0.0112,3.708765 0.0574,0.460904 0.14202,0.923385 0.29598,1.361585 0.0849,0.241483 0.16687,0.570331 0.41044,0.64897 0.44462,0.143547 0.93346,-0.04294 1.40018,-0.0644 0.62637,-1.182539 0.32894,-2.21161 0.0132,-3.424026 0.001,-0.03823 -0.53964,-0.05225 -0.54063,-0.01402 v 0 c -0.29284,0.859486 -0.7471,1.774767 -0.53459,2.702423 0.33999,0.122695 0.65888,0.384437 1.01996,0.368088 0.13799,-0.0062 0.006,-0.27631 0.002,-0.414372 -0.0129,-0.423143 -0.0295,-0.846238 -0.0536,-1.268889 -0.0116,-0.202578 -0.19581,-3.27656 -0.31827,-3.504617 -0.19379,-0.360932 -0.70601,-0.415756 -1.05902,-0.623634 -0.14449,-0.09929 -0.37576,-0.463412 -0.43348,-0.297868 -0.18768,0.538226 -0.0631,1.139029 -0.0586,1.709021 0.01,1.210548 0.0485,2.420903 0.1007,3.630366 0.16439,3.809966 0.47809,8.347522 0.70833,12.100803 0.14662,2.38996 0.28742,4.780278 0.43112,7.170415 0.25609,6.180643 0.50757,12.362418 0.72363,18.544593 0.0581,1.66203 0.071,4.426365 0.25168,6.210141 0.0493,0.48687 0.16744,0.964292 0.25116,1.44644 0.002,0.07355 1.04209,0.04541 1.0401,-0.02814 z"
         transform="translate(-25.58494,-3.1540244)" />
      <path
         style="fill:#2b0000;fill-opacity:1;stroke:#480000;stroke-width:0;stroke-miterlimit:4;stroke-dasharray:none;stroke-opacity:1"
         id="path15244"
         d="m 110.57621,34.045247 c 6.36906,-1.616665 12.66749,-3.501303 19.01517,-5.199266 17.41668,-4.658858 0.33706,0.107386 18.32192,-4.986707 7.23608,-2.232594 14.65462,-4.197715 21.51108,-7.494504 0.85618,-0.411678 1.72002,-0.848972 2.44822,-1.459111 0.20454,-0.171388 0.40806,-0.588354 0.21393,-0.771465 -0.53553,-0.50515 -1.33841,-0.613633 -2.00762,-0.92045 -2.20164,0.341464 -2.88877,0.365301 -5.06519,1.056585 -0.75061,0.238412 -1.51581,0.469224 -2.20288,0.854179 -0.29524,0.165414 -1.72199,1.472349 -2.1468,1.856396 -0.027,0.02201 0.28427,0.403698 0.31126,0.381689 v 0 c 2.69597,-0.81329 -1.21768,0.301701 2.81925,-0.513734 0.76185,-0.153888 1.50375,-0.394522 2.25008,-0.611517 2.51809,-0.732136 2.33864,-0.70942 4.69135,-1.570238 0.20553,-0.48986 0.62164,-0.938376 0.61658,-1.469581 -0.002,-0.236169 -0.39742,-0.318518 -0.63359,-0.317159 -1.01519,0.0058 -2.02622,0.166424 -3.02679,0.33823 -7.61378,1.307357 -15.03986,3.551046 -22.43453,5.730436 -10.11294,3.195186 -8.19927,2.427947 -17.85115,6.095916 -5.26537,2.000976 -10.63884,4.03481 -15.5814,6.774538 -0.68996,0.382453 -1.32793,0.851967 -1.9919,1.277951 -0.067,0.05254 0.67599,1.00035 0.74301,0.947812 z"
         transform="translate(-25.58494,-3.1540244)" />
      <path
         style="fill:#2b0000;fill-opacity:1;stroke:#480000;stroke-width:0;stroke-miterlimit:4;stroke-dasharray:none;stroke-opacity:1"
         id="path15246"
         d="m 118.5283,86.829113 c 4.17091,-0.128071 8.32394,-0.576905 12.48311,-0.881793 2.91975,-0.214034 5.84406,-0.364585 8.76261,-0.59437 8.98462,-0.707385 14.07768,-1.27217 23.1958,-2.188157 12.70483,-1.281388 25.42753,-2.336649 38.10646,-3.865481 5.70066,-0.687387 11.43163,-1.389105 17.07324,-2.481098 0.30938,-0.06756 0.90666,0.113268 0.92815,-0.202676 0.0259,-0.381119 -0.49079,-0.668362 -0.86309,-0.753915 -0.52429,-0.120478 -1.07358,0.09162 -1.60297,0.187225 -0.52584,0.09496 -1.72701,0.367324 -2.28589,0.719135 -0.0848,0.05339 -0.10387,0.171436 -0.15581,0.257154 1.04435,1.036142 0.61253,1.197977 1.32051,0.412551 0.0163,-0.0087 -0.1068,-0.238636 -0.12306,-0.229933 v 0 c -0.95194,-0.246095 -0.64888,-0.379394 -0.54706,0.829032 0.39922,0.29555 0.20308,0.207155 1.1087,0.06654 1.46462,-0.227406 4.29151,-0.648665 4.02882,-2.839119 -0.0573,-0.477689 -0.69036,-0.670285 -1.03553,-1.005427 -1.41138,-0.26348 -2.80886,-0.617143 -4.23412,-0.790445 -5.18629,-0.630622 -10.51958,-0.653061 -15.71962,-0.489845 -12.86891,0.403924 -25.65143,1.980203 -38.3842,3.807767 -4.02198,0.623581 -8.05311,1.190794 -12.06595,1.870737 -8.67602,1.470083 -10.80034,1.984636 -18.89258,3.831952 -3.45231,0.788096 -6.12605,1.368055 -9.42666,2.365338 -0.74999,0.226608 -1.48045,0.513405 -2.22066,0.770109 -0.0852,0.03888 0.46461,1.243595 0.5498,1.204717 z"
         transform="translate(-25.58494,-3.1540244)" />
      <path
         style="fill:#2b0000;fill-opacity:1;stroke:#480000;stroke-width:0;stroke-miterlimit:4;stroke-dasharray:none;stroke-opacity:1"
         id="path15248"
         d="m 182.02834,22.162168 c 0.43786,0.808603 1.7521,3.233433 1.98293,3.674459 0.75929,1.45072 1.47795,2.922644 2.24896,4.367169 2.32054,4.347657 5.13923,9.375558 7.64748,13.547232 1.7401,2.894095 3.5621,5.738146 5.34315,8.607219 5.37981,8.366014 11.29642,16.377698 17.64986,24.028103 1.57076,1.891417 4.41573,5.325645 6.59264,7.079298 0.3565,0.287184 0.82114,0.40496 1.23171,0.607443 1.27115,-1.906656 1.23118,-0.922475 -0.34774,-2.934443 -0.0302,-0.05733 -0.84095,0.370165 -0.81072,0.42749 v 0 c 1.11368,2.12286 0.24587,1.669941 2.44324,1.629291 -0.0794,-0.363622 -0.092,-0.748607 -0.23829,-1.090867 -1.07424,-2.513936 -3.32405,-6.153713 -4.60721,-8.197312 -5.24695,-8.356489 -11.05595,-16.333536 -16.97704,-24.220834 -1.97377,-2.731691 -3.96248,-5.452661 -5.92133,-8.195075 -4.57106,-6.399551 -8.92212,-13.04083 -14.27113,-18.841092 -0.35044,-0.38001 -0.74002,-0.721978 -1.11003,-1.082967 -0.0421,-0.06056 -0.89854,0.534324 -0.85648,0.594886 z"
         transform="translate(-25.58494,-3.1540244)" />
      <path
         style="fill:#2b0000;fill-opacity:1;stroke:#480000;stroke-width:0;stroke-miterlimit:4;stroke-dasharray:none;stroke-opacity:1"
         id="path15250"
         d="m 108.9539,35.45532 c 2.82377,1.771769 5.89699,3.140572 8.92667,4.512363 5.21427,2.36094 7.50405,3.366677 13.07246,5.394012 2.64462,0.962848 5.32523,1.823805 7.98784,2.735707 7.52459,2.482453 15.17671,4.538581 22.8025,6.677303 2.06927,0.580348 4.12946,1.193075 6.202,1.761604 4.3071,1.181497 6.02529,1.577721 10.23007,2.613117 4.53654,1.026533 9.05586,2.221683 13.40696,3.882033 2.02484,0.772666 3.04778,1.266838 5.00592,2.148755 4.47779,2.253658 9.06725,4.270849 13.80223,5.917179 2.36202,0.749829 4.78358,1.464374 7.28216,1.436188 0.55531,-0.05191 1.02705,0.296081 1.55022,0.398189 0.51019,0.09958 0.96953,0.05611 1.47787,0.03578 0.0152,0.01119 0.17333,-0.203438 0.15816,-0.214622 v 0 c -0.119,-0.174434 -0.20555,-0.376163 -0.357,-0.5233 -0.67691,-0.657617 -1.58978,-0.680641 -2.46614,-0.818645 -2.28111,-0.396653 -4.44224,-1.273273 -6.62455,-2.016006 -1.27407,-0.469691 -3.00539,-1.092666 -4.25039,-1.615218 -3.16181,-1.327068 -6.19206,-2.948482 -9.31111,-4.368562 -2.58448,-1.258154 -5.17115,-2.472023 -7.85566,-3.506898 -2.74856,-1.059566 -3.70025,-1.326859 -6.55561,-2.274694 -1.26465,-0.419802 -2.52833,-0.842532 -3.79249,-1.263796 -5.29922,-1.745546 -10.60357,-3.478551 -15.89473,-5.248225 -7.46312,-2.496105 -14.91544,-5.029321 -22.49918,-7.145869 -7.27936,-2.152004 -14.56399,-4.28874 -21.83759,-6.460019 -3.09727,-0.924581 -5.01189,-1.595249 -8.03233,-2.338387 -0.65315,-0.160698 -1.31869,-0.266047 -1.97803,-0.399071 -0.0482,-0.03183 -0.4984,0.649247 -0.45025,0.681085 z"
         transform="translate(-25.58494,-3.1540244)" />
      <path
         style="fill:#2b0000;fill-opacity:1;stroke:#480000;stroke-width:0;stroke-miterlimit:4;stroke-dasharray:none;stroke-opacity:1"
         id="path15252"
         d="m 89.967783,40.764462 c -0.330713,0.143568 -0.664834,0.27953 -0.99214,0.430702 -1.249608,0.577162 -2.239878,1.123545 -3.548292,1.633254 -3.659603,1.425647 -7.482896,2.482051 -11.23714,3.616413 -7.506531,2.251662 -15.135651,4.054573 -22.695641,6.11075 -1.937435,0.526947 -3.880006,1.037683 -5.801352,1.620573 -1.754642,0.532315 -3.48243,1.149435 -5.223645,1.724152 -3.821609,1.393799 -7.538174,3.091339 -10.720937,5.664134 -1.394791,1.127482 -2.492402,2.519532 -3.699836,3.826954 -0.09146,0.09195 -0.503373,0.544433 -0.712895,0.664771 -0.06215,0.0357 -0.468054,0.121203 -0.484155,0.1255 -0.475263,0.126849 -0.4916,0.14628 -0.984347,0.325919 -0.181582,0.09706 -1.249833,0.494628 -1.313916,0.71356 -0.0451,0.154096 0.07031,0.313333 0.10547,0.469998 -0.0052,0.0047 0.06127,0.0779 0.06645,0.07321 v 0 c 0.151823,0.08052 0.285316,0.217448 0.45547,0.241554 0.215082,0.03047 1.065368,-0.52601 1.293439,-0.56737 0.875872,-0.404064 1.829359,-0.58533 2.63633,-1.132295 1.386303,-1.008417 2.7237,-2.09296 4.201306,-2.970445 3.36854,-2.000427 7.018575,-3.415893 10.800524,-4.423336 5.243891,-1.459926 5.653506,-1.587132 11.063732,-3.036848 1.973538,-0.528828 3.957061,-1.020752 5.924889,-1.570447 5.589569,-1.561399 11.123205,-3.327149 16.555698,-5.371624 3.70786,-1.464405 7.287387,-2.854177 10.751955,-4.842457 1.048949,-0.601983 2.298449,-1.382279 3.239982,-2.185686 0.267366,-0.228142 0.488135,-0.505825 0.7322,-0.758738 0.02703,-0.02922 -0.386125,-0.411408 -0.41315,-0.382193 z"
         transform="translate(-25.58494,-3.1540244)" />
      <g
         id="g13592"
         transform="translate(29.63869,1.2208548)">
        <circle
           style="fill:#ffa500;fill-opacity:1;fill-rule:evenodd;stroke:#480000;stroke-width:0.765;stroke-miterlimit:4;stroke-dasharray:none;stroke-opacity:1"
           id="path269"
           cx="-31.333977"
           cy="14.594602"
           r="18.586981" />
        <text
           xml:space="preserve"
           style="font-style:normal;font-weight:normal;font-size:10.5833px;line-height:1.25;font-family:sans-serif;fill:#000000;fill-opacity:1;stroke:none;stroke-width:0.264583"
           x="-45.645718"
           y="18.540085"
           id="text6459"><tspan
             sodipodi:role="line"
             id="tspan6457"
             style="stroke-width:0.264583"
             x="-45.645718"
             y="18.540085">world</tspan></text>
      </g>
      <g
         id="g13680"
         transform="translate(107.87554,13.176048)">
        <circle
           style="fill:#ffa500;fill-opacity:1;fill-rule:evenodd;stroke:#480000;stroke-width:0.765;stroke-miterlimit:4;stroke-dasharray:none;stroke-opacity:1"
           id="circle13674"
           cx="-31.333977"
           cy="14.594602"
           r="18.586981" />
        <text
           xml:space="preserve"
           style="font-style:normal;font-weight:normal;font-size:10.5833px;line-height:1.25;font-family:sans-serif;fill:#000000;fill-opacity:1;stroke:none;stroke-width:0.264583"
           x="-45.645718"
           y="18.540085"
           id="text13678"><tspan
             sodipodi:role="line"
             id="tspan13676"
             style="stroke-width:0.264583"
             x="-45.645718"
             y="18.540085">world</tspan></text>
      </g>
      <g
         id="g13688"
         transform="translate(24.718518,55.450272)">
        <circle
           style="fill:#ffa500;fill-opacity:1;fill-rule:evenodd;stroke:#480000;stroke-width:0.765;stroke-miterlimit:4;stroke-dasharray:none;stroke-opacity:1"
           id="circle13682"
           cx="-31.333977"
           cy="14.594602"
           r="18.586981" />
        <text
           xml:space="preserve"
           style="font-style:normal;font-weight:normal;font-size:10.5833px;line-height:1.25;font-family:sans-serif;fill:#000000;fill-opacity:1;stroke:none;stroke-width:0.264583"
           x="-45.645718"
           y="18.540085"
           id="text13686"><tspan
             sodipodi:role="line"
             id="tspan13684"
             style="stroke-width:0.264583"
             x="-45.645718"
             y="18.540085">world</tspan></text>
      </g>
      <g
         id="g13696"
         transform="translate(117.89671,69.605285)">
        <circle
           style="fill:#ffa500;fill-opacity:1;fill-rule:evenodd;stroke:#480000;stroke-width:0.765;stroke-miterlimit:4;stroke-dasharray:none;stroke-opacity:1"
           id="circle13690"
           cx="-31.333977"
           cy="14.594602"
           r="18.586981" />
        <text
           xml:space="preserve"
           style="font-style:normal;font-weight:normal;font-size:10.5833px;line-height:1.25;font-family:sans-serif;fill:#000000;fill-opacity:1;stroke:none;stroke-width:0.264583"
           x="-45.645718"
           y="18.540085"
           id="text13694"><tspan
             sodipodi:role="line"
             id="tspan13692"
             style="stroke-width:0.264583"
             x="-45.645718"
             y="18.540085">world</tspan></text>
      </g>
      <g
         id="g13704"
         transform="translate(177.74422,1.6751018)">
        <circle
           style="fill:#ffa500;fill-opacity:1;fill-rule:evenodd;stroke:#480000;stroke-width:0.765;stroke-miterlimit:4;stroke-dasharray:none;stroke-opacity:1"
           id="circle13698"
           cx="-31.333977"
           cy="14.594602"
           r="18.586981" />
        <text
           xml:space="preserve"
           style="font-style:normal;font-weight:normal;font-size:10.5833px;line-height:1.25;font-family:sans-serif;fill:#000000;fill-opacity:1;stroke:none;stroke-width:0.264583"
           x="-45.645718"
           y="18.540085"
           id="text13702"><tspan
             sodipodi:role="line"
             id="tspan13700"
             style="stroke-width:0.264583"
             x="-45.645718"
             y="18.540085">world</tspan></text>
      </g>
      <g
         id="g13712"
         transform="translate(235.74279,54.112056)">
        <circle
           style="fill:#ffa500;fill-opacity:1;fill-rule:evenodd;stroke:#480000;stroke-width:0.765;stroke-miterlimit:4;stroke-dasharray:none;stroke-opacity:1"
           id="circle13706"
           cx="-31.333977"
           cy="14.594602"
           r="18.586981" />
        <text
           xml:space="preserve"
           style="font-style:normal;font-weight:normal;font-size:10.5833px;line-height:1.25;font-family:sans-serif;fill:#000000;fill-opacity:1;stroke:none;stroke-width:0.264583"
           x="-45.645718"
           y="18.540085"
           id="text13710"><tspan
             sodipodi:role="line"
             id="tspan13708"
             style="stroke-width:0.264583"
             x="-45.645718"
             y="18.540085">world</tspan></text>
      </g>
    </g>
  </g>
</svg>
