<?xml version="1.0" encoding="UTF-8" standalone="no"?>
<!-- Created with Inkscape (http://www.inkscape.org/) -->

<svg
   width="234.92117mm"
   height="105.94769mm"
   viewBox="0 0 234.92118 105.94769"
   version="1.1"
   id="svg5"
   inkscape:version="1.1.2 (0a00cf5339, 2022-02-04)"
   sodipodi:docname="from inside a world.svg"
   xmlns:inkscape="http://www.inkscape.org/namespaces/inkscape"
   xmlns:sodipodi="http://sodipodi.sourceforge.net/DTD/sodipodi-0.dtd"
   xmlns="http://www.w3.org/2000/svg"
   xmlns:svg="http://www.w3.org/2000/svg">
  <sodipodi:namedview
     id="namedview7"
     pagecolor="#ffffff"
     bordercolor="#666666"
     borderopacity="1.0"
     inkscape:pageshadow="2"
     inkscape:pageopacity="0.0"
     inkscape:pagecheckerboard="0"
     inkscape:document-units="mm"
     showgrid="false"
     inkscape:zoom="0.77593294"
     inkscape:cx="396.29713"
     inkscape:cy="395.00836"
     inkscape:window-width="1918"
     inkscape:window-height="1078"
     inkscape:window-x="0"
     inkscape:window-y="0"
     inkscape:window-maximized="1"
     inkscape:current-layer="layer1"
     inkscape:snap-bbox="true"
     inkscape:snap-global="false"
     inkscape:bbox-paths="true"
     inkscape:bbox-nodes="true"
     inkscape:snap-bbox-edge-midpoints="true"
     inkscape:snap-bbox-midpoints="true"
     inkscape:snap-center="true"
     inkscape:snap-object-midpoints="true" />
  <defs
     id="defs2" />
  <g
     inkscape:groupmode="layer"
     id="layer2"
     inkscape:label="connections"
     transform="translate(12.91061,2.044289)" />
  <g
     inkscape:label="Layer 1"
     inkscape:groupmode="layer"
     id="layer1"
     transform="translate(38.49555,5.1983134)">
    <text
       xml:space="preserve"
       style="font-style:normal;font-weight:normal;font-size:9.69744px;line-height:1.25;font-family:sans-serif;fill:#000000;fill-opacity:1;stroke:none;stroke-width:0.242436"
       x="83.793007"
       y="106.41779"
       id="text11199"><tspan
         sodipodi:role="line"
         id="tspan11197"
         style="stroke-width:0.242436"
         x="83.793007"
         y="106.41779" /></text>
    <rect
       style="fill:#ffb95e;fill-opacity:0.921435;stroke:#570000;stroke-width:0.945975;stroke-miterlimit:4;stroke-dasharray:none;stroke-opacity:1"
       id="rect15618"
       width="214.31143"
       height="96.133499"
       x="-28.19068"
       y="-0.29122046" />
    <g
       id="g29209"
       transform="matrix(0.81790408,0,0,0.70182553,68.250783,2.9316037)">
      <path
         id="path27640"
         style="fill:#ff635e;fill-opacity:0.921435;stroke:#570000;stroke-width:0.682411;stroke-miterlimit:4;stroke-dasharray:none;stroke-opacity:1"
         d="m -99.978937,2.7799214 a 5.4915661,6.2533206 0 0 0 -5.491413,6.253147 5.4915661,6.2533206 0 0 0 0.0103,0.3179821 h -0.0505 V 85.280679 h 0.0505 a 5.4915661,6.2533206 0 0 0 -0.0103,0.317972 5.4915661,6.2533206 0 0 0 5.491413,6.253159 5.4915661,6.2533206 0 0 0 5.491742,-6.253159 5.4915661,6.2533206 0 0 0 -0.0071,-0.317972 h 0.04763 V 9.3510505 h -0.05092 a 5.4915661,6.2533206 0 0 0 0.01058,-0.3179821 5.4915661,6.2533206 0 0 0 -5.491742,-6.253147 z" />
      <circle
         style="fill:#b0110c;fill-opacity:0.921435;stroke:#570000;stroke-width:0.783319;stroke-miterlimit:4;stroke-dasharray:none;stroke-opacity:1"
         id="path28553"
         cx="-99.978935"
         cy="15.610572"
         r="4.3294759" />
    </g>
    <path
       id="path29211"
       style="fill:#ff635e;fill-opacity:0.921435;stroke:#570000;stroke-width:0.517025;stroke-miterlimit:4;stroke-dasharray:none;stroke-opacity:1"
       d="m 0.56922752,4.8826236 a 4.4915743,4.38874 0 0 0 -4.49144932,4.3886187 4.4915743,4.38874 0 0 0 0.00843,0.2231672 h -0.041307 V 62.78376 h 0.041307 a 4.4915743,4.38874 0 0 0 -0.00843,0.223161 4.4915743,4.38874 0 0 0 4.49144932,4.388626 4.4915743,4.38874 0 0 0 4.49171808,-4.388626 4.4915743,4.38874 0 0 0 -0.00584,-0.223161 h 0.038953 V 9.4944095 H 5.0524158 A 4.4915743,4.38874 0 0 0 5.0610656,9.2712423 4.4915743,4.38874 0 0 0 0.56934747,4.8826236 Z" />
    <ellipse
       style="fill:#b0110c;fill-opacity:0.921435;stroke:#570000;stroke-width:0.593478;stroke-miterlimit:4;stroke-dasharray:none;stroke-opacity:1"
       id="circle29213"
       cx="0.56922877"
       cy="29.337389"
       rx="3.541096"
       ry="3.0385365" />
    <path
       id="path29217"
       style="fill:#ff635e;fill-opacity:0.921435;stroke:#570000;stroke-width:0.517025;stroke-miterlimit:4;stroke-dasharray:none;stroke-opacity:1"
       d="m 15.482272,4.8826236 a 4.4915743,4.38874 0 0 0 -4.491449,4.3886187 4.4915743,4.38874 0 0 0 0.0084,0.2231672 h -0.0413 V 62.78376 h 0.0413 a 4.4915743,4.38874 0 0 0 -0.0084,0.223161 4.4915743,4.38874 0 0 0 4.491449,4.388626 4.4915743,4.38874 0 0 0 4.491718,-4.388626 4.4915743,4.38874 0 0 0 -0.0059,-0.223161 h 0.03895 V 9.4944095 h -0.04165 a 4.4915743,4.38874 0 0 0 0.0086,-0.2231672 4.4915743,4.38874 0 0 0 -4.491718,-4.3886187 z" />
    <ellipse
       style="fill:#b0110c;fill-opacity:0.921435;stroke:#570000;stroke-width:0.593478;stroke-miterlimit:4;stroke-dasharray:none;stroke-opacity:1"
       id="circle29219"
       cx="15.482275"
       cy="19.047367"
       rx="3.541096"
       ry="3.0385365" />
    <path
       id="path29223"
       style="fill:#ff635e;fill-opacity:0.921435;stroke:#570000;stroke-width:0.517025;stroke-miterlimit:4;stroke-dasharray:none;stroke-opacity:1"
       d="m 30.298647,4.8826236 a 4.4915743,4.38874 0 0 0 -4.491449,4.3886187 4.4915743,4.38874 0 0 0 0.0084,0.2231672 h -0.04131 V 62.78376 h 0.04131 a 4.4915743,4.38874 0 0 0 -0.0084,0.223161 4.4915743,4.38874 0 0 0 4.491449,4.388626 4.4915743,4.38874 0 0 0 4.491718,-4.388626 4.4915743,4.38874 0 0 0 -0.0059,-0.223161 h 0.03895 V 9.4944095 h -0.04165 a 4.4915743,4.38874 0 0 0 0.0086,-0.2231672 4.4915743,4.38874 0 0 0 -4.491718,-4.3886187 z" />
    <ellipse
       style="fill:#b0110c;fill-opacity:0.921435;stroke:#570000;stroke-width:0.593478;stroke-miterlimit:4;stroke-dasharray:none;stroke-opacity:1"
       id="circle29225"
       cx="30.298647"
       cy="41.340595"
       rx="3.541096"
       ry="3.0385365" />
    <path
       id="path29229"
       style="fill:#b2e580;fill-opacity:0.921435;stroke:#570000;stroke-width:0.517115;stroke-miterlimit:4;stroke-dasharray:none;stroke-opacity:1"
       d="m 118.7278,4.8825786 a 4.4783512,4.4032254 0 0 0 -4.47823,4.4031035 4.4783512,4.4032254 0 0 0 0.008,0.2239038 h -0.0412 V 62.974824 h 0.0412 a 4.4783512,4.4032254 0 0 0 -0.008,0.223898 4.4783512,4.4032254 0 0 0 4.47823,4.403112 4.4783512,4.4032254 0 0 0 4.47849,-4.403112 4.4783512,4.4032254 0 0 0 -0.005,-0.223898 h 0.0388 V 9.5095859 h -0.0415 a 4.4783512,4.4032254 0 0 0 0.008,-0.2239038 4.4783512,4.4032254 0 0 0 -4.4785,-4.4031035 z" />
    <ellipse
       style="fill:#6c7c5c;fill-opacity:0.921435;stroke:#570000;stroke-width:0.59358;stroke-miterlimit:4;stroke-dasharray:none;stroke-opacity:1"
       id="circle29231"
       cx="118.7278"
       cy="42.130447"
       rx="3.5306711"
       ry="3.0485654" />
    <path
       id="path30965"
       style="fill:#b2e580;fill-opacity:0.921435;stroke:#570000;stroke-width:0.517115;stroke-miterlimit:4;stroke-dasharray:none;stroke-opacity:1"
       d="m 132.83501,4.8825786 a 4.4783512,4.4032254 0 0 0 -4.47822,4.4031035 4.4783512,4.4032254 0 0 0 0.008,0.2239038 h -0.0412 V 62.974824 h 0.0412 a 4.4783512,4.4032254 0 0 0 -0.008,0.223898 4.4783512,4.4032254 0 0 0 4.47822,4.403112 4.4783512,4.4032254 0 0 0 4.4785,-4.403112 4.4783512,4.4032254 0 0 0 -0.006,-0.223898 h 0.0388 V 9.5095859 h -0.0415 a 4.4783512,4.4032254 0 0 0 0.008,-0.2239038 4.4783512,4.4032254 0 0 0 -4.47849,-4.4031035 z" />
    <ellipse
       style="fill:#6c7c5c;fill-opacity:0.921435;stroke:#570000;stroke-width:0.59358;stroke-miterlimit:4;stroke-dasharray:none;stroke-opacity:1"
       id="ellipse30967"
       cx="132.83502"
       cy="24.36273"
       rx="3.5306711"
       ry="3.0485654" />
    <path
       id="path30977"
       style="fill:#b2e580;fill-opacity:0.921435;stroke:#570000;stroke-width:0.517115;stroke-miterlimit:4;stroke-dasharray:none;stroke-opacity:1"
       d="m 146.94937,4.8825786 a 4.4783512,4.4032254 0 0 0 -4.47823,4.4031035 4.4783512,4.4032254 0 0 0 0.008,0.2239038 h -0.0412 V 62.974824 h 0.0412 a 4.4783512,4.4032254 0 0 0 -0.008,0.223898 4.4783512,4.4032254 0 0 0 4.47823,4.403112 4.4783512,4.4032254 0 0 0 4.47849,-4.403112 4.4783512,4.4032254 0 0 0 -0.006,-0.223898 h 0.0388 V 9.5095859 h -0.0415 a 4.4783512,4.4032254 0 0 0 0.008,-0.2239038 4.4783512,4.4032254 0 0 0 -4.4785,-4.4031035 z" />
    <ellipse
       style="fill:#6c7c5c;fill-opacity:0.921435;stroke:#570000;stroke-width:0.59358;stroke-miterlimit:4;stroke-dasharray:none;stroke-opacity:1"
       id="ellipse30979"
       cx="146.94937"
       cy="50.45636"
       rx="3.5306711"
       ry="3.0485654" />
    <path
       id="path30983"
       style="fill:#b2e580;fill-opacity:0.921435;stroke:#570000;stroke-width:0.517115;stroke-miterlimit:4;stroke-dasharray:none;stroke-opacity:1"
       d="m 161.26051,4.8825786 a 4.4783512,4.4032254 0 0 0 -4.47822,4.4031035 4.4783512,4.4032254 0 0 0 0.008,0.2239038 h -0.0412 V 62.974824 h 0.0412 a 4.4783512,4.4032254 0 0 0 -0.008,0.223898 4.4783512,4.4032254 0 0 0 4.47822,4.403112 4.4783512,4.4032254 0 0 0 4.4785,-4.403112 4.4783512,4.4032254 0 0 0 -0.006,-0.223898 h 0.0388 V 9.5095859 h -0.0415 a 4.4783512,4.4032254 0 0 0 0.008,-0.2239038 4.4783512,4.4032254 0 0 0 -4.47849,-4.4031035 z" />
    <ellipse
       style="fill:#6c7c5c;fill-opacity:0.921435;stroke:#570000;stroke-width:0.59358;stroke-miterlimit:4;stroke-dasharray:none;stroke-opacity:1"
       id="ellipse30985"
       cx="161.26051"
       cy="26.448675"
       rx="3.5306711"
       ry="3.0485654" />
    <text
       xml:space="preserve"
       style="font-style:normal;font-weight:normal;font-size:11.4481px;line-height:1.25;font-family:sans-serif;fill:#000000;fill-opacity:1;stroke:none;stroke-width:0.286203"
       x="-18.019217"
       y="81.517159"
       id="text33007"><tspan
         sodipodi:role="line"
         id="tspan33005"
         style="stroke-width:0.286203"
         x="-18.019217"
         y="81.517159">Controler</tspan></text>
    <text
       xml:space="preserve"
       style="font-style:normal;font-weight:normal;font-size:11.4481px;line-height:1.25;font-family:sans-serif;fill:#000000;fill-opacity:1;stroke:none;stroke-width:0.286203"
       x="115.98604"
       y="84.540848"
       id="text35531"><tspan
         sodipodi:role="line"
         id="tspan35529"
         style="stroke-width:0.286203"
         x="115.98604"
         y="84.540848">Oberver</tspan></text>
  </g>
</svg>
