<?xml version="1.0" encoding="UTF-8" standalone="no"?>
<!-- Created with Inkscape (http://www.inkscape.org/) -->

<svg
   width="234.97897mm"
   height="226.27914mm"
   viewBox="0 0 234.97898 226.27914"
   version="1.1"
   id="svg5"
   inkscape:version="1.1.2 (0a00cf5339, 2022-02-04)"
   sodipodi:docname="RL.svg"
   xmlns:inkscape="http://www.inkscape.org/namespaces/inkscape"
   xmlns:sodipodi="http://sodipodi.sourceforge.net/DTD/sodipodi-0.dtd"
   xmlns="http://www.w3.org/2000/svg"
   xmlns:svg="http://www.w3.org/2000/svg">
  <sodipodi:namedview
     id="namedview7"
     pagecolor="#ffffff"
     bordercolor="#666666"
     borderopacity="1.0"
     inkscape:pageshadow="2"
     inkscape:pageopacity="0.0"
     inkscape:pagecheckerboard="0"
     inkscape:document-units="mm"
     showgrid="false"
     inkscape:zoom="0.77593294"
     inkscape:cx="396.29713"
     inkscape:cy="395.00836"
     inkscape:window-width="1918"
     inkscape:window-height="1078"
     inkscape:window-x="0"
     inkscape:window-y="0"
     inkscape:window-maximized="1"
     inkscape:current-layer="layer1"
     inkscape:snap-bbox="true"
     inkscape:snap-global="false"
     inkscape:bbox-paths="true"
     inkscape:bbox-nodes="true"
     inkscape:snap-bbox-edge-midpoints="true"
     inkscape:snap-bbox-midpoints="true"
     inkscape:snap-center="true"
     inkscape:snap-object-midpoints="true" />
  <defs
     id="defs2" />
  <g
     inkscape:groupmode="layer"
     id="layer2"
     inkscape:label="connections"
     transform="translate(12.939513,2.0573225)" />
  <g
     inkscape:label="Layer 1"
     inkscape:groupmode="layer"
     id="layer1"
     transform="translate(38.524453,5.2113469)">
    <path
       style="fill:#a41875;fill-opacity:0.921435;stroke:#570000;stroke-width:0;stroke-miterlimit:4;stroke-dasharray:none;stroke-opacity:1"
       id="path41047"
       d="m 38.942461,48.078387 c 2.910753,-1.20296 5.708555,-2.659822 8.619445,-3.864454 2.331217,-0.964742 4.291758,-1.648428 6.66573,-2.512314 4.413239,-1.496446 8.951899,-3.115334 13.678717,-2.881693 0.476255,0.06123 0.953982,0.111934 1.428763,0.1837 1.213607,0.183441 2.133743,0.406429 3.375388,0.572188 2.548797,0.340262 5.115285,0.408717 7.681367,0.500787 4.085704,0.31478 8.280863,0.27037 12.281265,1.285656 0.591156,0.150032 1.164159,0.364185 1.74624,0.546277 2.656697,0.989581 5.084423,2.471071 7.561234,3.828108 1.46603,0.772263 2.7827,1.785966 4.18258,2.665653 0.8555,0.537596 1.43177,0.855414 2.30532,1.355053 1.77097,0.926285 3.31419,2.065507 4.77539,3.412763 1.26895,1.099666 2.71169,1.982726 3.83696,3.240016 0.67458,1.002342 1.04738,2.16976 1.57824,3.25117 0.16764,0.286213 0.25923,0.57925 0.57641,0.698802 0.0326,0.05685 0.83662,-0.404072 0.80403,-0.460925 v 0 c 0.19575,-0.161658 -0.14484,-0.521682 -0.1621,-0.706329 -0.52457,-1.184389 -1.03907,-2.379298 -1.69383,-3.498586 -1.06404,-1.405543 -2.47406,-2.406782 -3.88802,-3.437953 -0.66363,-0.550646 -1.25133,-1.171689 -1.91135,-1.725274 -0.9028,-0.757222 -1.89142,-1.404834 -2.91474,-1.986111 -2.21108,-1.281692 -4.3724,-2.636932 -6.53761,-3.994247 -0.74997,-0.419492 -1.50839,-0.823955 -2.25358,-1.251884 -1.767087,-1.014762 -3.456971,-2.177585 -5.359857,-2.939135 -1.659247,-0.603964 -2.09482,-0.81688 -3.844054,-1.225928 -3.434858,-0.803222 -6.979576,-1.057879 -10.495055,-1.161659 -9.372528,-0.130188 3.642032,0.03954 -5.358363,-0.0429 -1.107916,-0.01016 -3.040583,-0.02862 -4.195627,-0.152828 -0.362694,-0.039 -2.646521,-0.461008 -3.000595,-0.525386 -1.661062,-0.161898 -2.425541,-0.295942 -4.080973,-0.229793 -3.934973,0.157236 -7.777858,1.218464 -11.492373,2.452431 -1.148024,0.445023 -2.310219,0.855093 -3.444075,1.335074 -3.956487,1.674847 -7.855305,3.691149 -11.214423,6.389275 -0.06226,0.053 0.68729,0.933444 0.749546,0.880443 z" />
    <path
       style="fill:#a41875;fill-opacity:0.921435;stroke:#570000;stroke-width:0;stroke-miterlimit:4;stroke-dasharray:none;stroke-opacity:1"
       id="path41049"
       d="m 116.6157,96.324456 c -2.28496,2.296721 -4.1769,4.991784 -6.65835,7.097254 -0.71327,0.6052 -1.49883,1.11962 -2.24825,1.67943 -2.60512,1.67809 -5.44696,2.97599 -8.456335,3.74258 -3.65276,0.93047 -7.460556,1.25382 -11.195968,1.64951 -2.728973,0.17788 -4.366873,0.3446 -7.081506,0.29313 -1.189003,-0.0225 -5.891673,-0.40072 -6.746825,-0.47014 -9.787768,-0.79454 1.726113,0.0972 -8.087961,-0.65299 -6.851573,-0.48221 -13.688342,-1.10867 -20.461631,-2.2649 -1.459285,-0.43119 -1.99163,-0.47802 -3.244455,-1.21449 -1.372048,-0.80655 -2.501448,-2.07555 -3.595273,-3.21002 -0.788897,-0.88695 -1.47212,-1.87515 -2.413873,-2.61467 -0.435263,-0.3418 -0.865825,-0.582641 -1.337781,-0.868269 -0.652496,-0.365456 -1.318691,-0.705789 -2.005546,-1.002049 -0.228397,-0.09851 -0.562502,-0.277294 -0.830739,-0.270044 -0.581639,1.126437 -0.818722,1.14472 -0.03527,0.712486 0.0066,0.0039 0.06205,-0.08984 0.05542,-0.09376 v 0 c 0.05944,-0.796369 0.12963,-0.502496 -0.81638,0.393835 0.383286,0.567291 2.030793,1.122101 2.616203,1.504081 0.361386,0.1901 0.817821,0.40895 1.149524,0.6597 0.914215,0.69111 1.431737,1.77148 2.188194,2.60879 2.039956,2.32412 4.257718,4.52112 7.237169,5.57849 0.847058,0.24571 1.681837,0.53859 2.541175,0.73714 2.272059,0.52497 4.347866,0.74268 6.665135,1.02313 3.779403,0.45741 7.561116,0.92095 11.35943,1.19253 5.004157,0.35069 3.142255,0.2429 8.160445,0.50355 3.940231,0.20465 7.900258,0.42935 11.847886,0.32519 1.265695,-0.0334 2.528699,-0.13448 3.793048,-0.20173 1.315228,-0.15213 2.636671,-0.25775 3.945681,-0.45639 4.716462,-0.7157 9.530203,-1.95314 13.699683,-4.34155 0.92316,-0.52881 1.77695,-1.17045 2.66543,-1.75567 0.75466,-0.64839 1.54354,-1.25896 2.26399,-1.94517 2.36927,-2.25665 4.3084,-4.991993 5.85653,-7.861741 0.0338,-0.05861 -0.79506,-0.535847 -0.82881,-0.477242 z" />
    <text
       xml:space="preserve"
       style="font-style:normal;font-weight:normal;font-size:9.69744px;line-height:1.25;font-family:sans-serif;fill:#000000;fill-opacity:1;stroke:none;stroke-width:0.242436"
       x="83.793007"
       y="106.41779"
       id="text11199"><tspan
         sodipodi:role="line"
         id="tspan11197"
         style="stroke-width:0.242436"
         x="83.793007"
         y="106.41779" /></text>
    <circle
       style="fill:#6c7c5c;fill-opacity:1;stroke:#570000;stroke-width:1;stroke-miterlimit:4;stroke-dasharray:none;stroke-opacity:1"
       id="path40922"
       cx="16.478317"
       cy="77.158463"
       r="36.901245" />
    <circle
       style="fill:#6c7c5c;fill-opacity:1;stroke:#570000;stroke-width:1;stroke-miterlimit:4;stroke-dasharray:none;stroke-opacity:1"
       id="circle41004"
       cx="141.15027"
       cy="77.235985"
       r="36.901245" />
    <path
       style="fill:#a41875;fill-opacity:0.63921571;stroke:#570000;stroke-width:0;stroke-miterlimit:4;stroke-dasharray:none;stroke-opacity:1"
       id="path43561"
       d="m 100.55763,40.125179 c 0.75365,2.449636 2.12102,4.711327 3.95816,6.504238 0.33837,0.330224 0.71633,0.617284 1.07449,0.925926 0.6571,0.49626 1.35283,0.932521 2.07863,1.318863 0.0715,0.03805 0.13522,0.100404 0.21528,0.112612 0.0135,0.0021 10e-4,-0.02611 -0.065,-0.205274 -0.0922,0.624043 0.32241,1.100637 0.83662,1.37746 0.0709,0.02212 0.16425,0.122616 0.21277,0.06636 0.24882,-0.288454 0.46268,-0.622385 0.57958,-0.984946 0.0777,-0.241086 -1.03038,-0.493258 -1.16952,-0.514223 -3.56684,-0.388596 -7.13413,-0.136951 -10.671487,0.37823 -0.805627,0.173355 -1.760696,0.315621 -2.538159,0.664352 -0.139716,0.06267 -0.397909,0.120367 -0.370869,0.27109 0.320442,1.786091 1.095185,1.32888 2.379623,1.249698 0.09781,-0.01892 0.770387,-0.103071 0.886404,-0.268187 0.08366,-0.119067 -0.0037,-0.305472 0.07015,-0.430895 0.02685,-0.04564 0.09621,0.04426 0.144317,0.06639 0.0046,0.0039 0.05969,-0.06035 0.05514,-0.06425 v 0 c -0.227282,-0.167558 -0.373256,-0.434023 -0.610261,-0.587518 -0.189852,-0.122957 -0.798701,-0.111371 -0.972394,-0.117824 -0.950288,0.04068 -1.298925,-0.115041 -1.317818,1.325634 -0.0016,0.124981 0.24689,0.04702 0.371879,0.04815 0.743599,0.0067 1.97697,-0.108492 2.634388,-0.158218 2.165947,-0.202565 4.320827,-0.44414 6.477437,-0.730014 0.92456,-0.122555 1.85393,-0.211103 2.77501,-0.357542 0.12327,-0.01961 0.24058,-0.06666 0.36087,-0.09999 0.0901,-0.01574 0.18028,-0.03151 0.27042,-0.04726 0.0303,-0.01363 0.0583,-0.0341 0.0909,-0.04088 0.0686,-0.01429 0.10714,0.02516 0.1623,0.0575 0.2804,-0.224136 0.56079,-0.448276 0.84119,-0.672412 0.006,0.009 0.011,0.01805 0.0165,0.02708 -0.19553,-0.0692 -0.44278,-0.149233 -0.42301,-0.375854 -0.0206,-0.293134 0.009,-0.391382 -0.14288,-0.646499 -0.43718,-0.734229 -1.36934,-1.085178 -1.90032,-1.72903 -0.83777,-0.823638 -1.12533,-1.066658 -1.90285,-2.011945 -1.21645,-1.478952 -2.18199,-3.130399 -3.18793,-4.753335 -0.0285,-0.08623 -1.24798,0.316294 -1.21952,0.402527 z" />
    <path
       style="fill:#a41875;fill-opacity:0.63921571;stroke:#570000;stroke-width:0;stroke-miterlimit:4;stroke-dasharray:none;stroke-opacity:1"
       id="path43563"
       d="m 60.400942,103.96597 c -3.466664,0.62247 -6.857537,1.61892 -10.173425,2.79524 -1.198618,0.46071 -1.199206,0.4503 -2.27933,0.9002 -0.226044,0.0941 -0.451969,0.18872 -0.675513,0.28867 -0.186949,0.0836 -0.501171,0.22184 -0.467781,0.26885 0.266309,0.37493 0.595305,0.70113 0.892956,1.0517 0.405662,-0.11612 0.988727,-1.24445 0.376999,-0.29521 -0.08843,0.0314 0.395859,-0.15322 0.3522,-0.0433 -0.02819,0.071 -0.231364,0.0243 -0.20765,0.0969 0.0328,0.10042 0.198112,0.0787 0.284747,0.13914 0.344022,0.24007 0.73819,0.67829 1.010492,0.95494 1.872078,2.17841 3.818678,4.28782 6.145471,5.99357 0.487186,0.35715 1.005018,0.67049 1.507527,1.00573 0.380635,0.19946 1.56169,0.97084 2.177815,0.82583 0.280696,-0.0661 0.441325,-0.37128 0.661985,-0.55692 0.0074,-0.003 -0.04171,-0.10832 -0.04912,-0.10485 v 0 c 0.06153,-0.14965 0.235958,-0.29552 0.184579,-0.44895 -0.102574,-0.30631 -1.514914,-1.22425 -1.516018,-1.22503 -2.728444,-2.05082 -5.362138,-4.21933 -7.814005,-6.5967 -0.895554,-0.71949 -2.020972,-1.77388 -3.273608,-1.20962 -1.084106,1.17964 0.233617,-0.14392 -0.605091,0.34491 0.155958,0.41274 0.26312,0.84738 0.467878,1.23821 0.02756,0.0526 0.432216,-0.0215 0.643636,-0.0644 1.063908,-0.2158 2.108004,-0.52064 3.159361,-0.78743 3.352231,-0.88889 6.667619,-1.96043 9.80105,-3.46255 0.07841,-0.0428 -0.52674,-1.15172 -0.605152,-1.10893 z" />
  </g>
</svg>
